<svg xmlns="http://www.w3.org/2000/svg" viewBox="0 0 64 64">
  <defs>
    <linearGradient id="g" x1="0" y1="0" x2="1" y2="1">
      <stop offset="0" stop-color="#0ea5e9"/>
      <stop offset="1" stop-color="#6366f1"/>
    </linearGradient>
  </defs>
  <rect width="64" height="64" rx="14" fill="url(#g)"/>
  <!-- Display -->
  <rect x="7.5" y="8.5" width="49" height="33" rx="4.5" fill="#0f172a" stroke="#fff" stroke-width="3"/>
  <rect x="12" y="13" width="10" height="6" rx="1.5" fill="#38bdf8"/>
  <rect x="42" y="13" width="10" height="6" rx="1.5" fill="#818cf8"/>
  <!-- Beruehrung -->
  <circle cx="31" cy="24" r="8" fill="none" stroke="#38bdf8" stroke-width="2.4"/>
  <circle cx="31" cy="24" r="4.5" fill="#38bdf8" opacity=".45"/>
  <!-- Hand mit Zeigefinger -->
  <path d="M27 49V27a4 4 0 0 1 8 0v12a3 3 0 0 1 6 0v2a3 3 0 0 1 6 0v11c0 6-4 10-9 10h-7c-3 0-5.5-1.5-7-4l-6.4-8.5a2.8 2.8 0 0 1 4.4-3.4z"
        fill="#fff" stroke="#1e293b" stroke-width="2.2" stroke-linejoin="round"/>
</svg>
